<svg xmlns="http://www.w3.org/2000/svg" fill="none" viewBox="0 0 1783 216" height="216" width="1783">
<g clip-path="url(#clip0_3128_1250)">
<path fill="black" d="M197.175 125.741C194.726 125.741 192.739 127.728 192.739 130.176V161.224H68.5469V107.999H117.337C119.785 107.999 121.772 106.012 121.772 103.563C121.772 101.115 119.785 99.128 117.337 99.128H68.5469V81.3863H117.337C119.785 81.3863 121.772 79.3992 121.772 76.9508C121.772 74.5025 119.785 72.5154 117.337 72.5154H68.5469C63.6501 72.5154 59.676 76.4895 59.676 81.3863V161.224C59.676 166.121 63.6501 170.095 68.5469 170.095H192.739C197.636 170.095 201.61 166.121 201.61 161.224V130.176C201.61 127.728 199.623 125.741 197.175 125.741Z"></path>
<path fill="black" d="M99.5949 125.741H81.8532C79.4048 125.741 77.4178 127.728 77.4178 130.176C77.4178 132.624 79.4048 134.611 81.8532 134.611H99.5949C102.043 134.611 104.03 132.624 104.03 130.176C104.03 127.728 102.043 125.741 99.5949 125.741Z"></path>
<path fill="black" d="M198.922 59.5638L167.874 46.2575C166.747 45.7874 165.497 45.7874 164.37 46.2575L133.322 59.5638C131.699 60.2646 130.643 61.8703 130.643 63.6444V81.3862C130.643 105.79 139.665 120.054 163.918 134.026C164.601 134.416 165.364 134.611 166.127 134.611C166.889 134.611 167.652 134.416 168.335 134.026C192.588 120.09 201.61 105.825 201.61 81.3862V63.6444C201.61 61.8703 200.554 60.2646 198.922 59.5638ZM192.739 81.3862C192.739 101.869 185.962 113.144 166.127 125.031C146.291 113.117 139.514 101.842 139.514 81.3862V66.5718L166.127 55.1639L192.739 66.5718V81.3862Z"></path>
<path fill="black" d="M182.209 73.4823C180.302 71.9743 177.517 72.267 175.973 74.1742L162.028 91.6144L156.51 83.3645C155.135 81.3242 152.377 80.783 150.363 82.1314C148.331 83.4887 147.773 86.2475 149.13 88.2789L158.001 101.585C158.79 102.765 160.085 103.492 161.505 103.563C161.567 103.563 161.638 103.563 161.691 103.563C163.03 103.563 164.308 102.96 165.159 101.896L182.901 79.7185C184.427 77.8024 184.125 75.017 182.209 73.4823Z"></path>
</g>
<path fill="black" d="M236.606 95.0527H240.268C240.385 96.0195 240.883 96.8008 241.762 97.3965C242.641 97.9824 243.73 98.2754 245.029 98.2754C246.298 98.2754 247.334 97.9922 248.134 97.4258C248.945 96.8594 249.35 96.1367 249.35 95.2578C249.35 94.4961 249.057 93.8809 248.471 93.4121C247.885 92.9336 246.928 92.5381 245.6 92.2256L242.861 91.5811C240.918 91.1318 239.472 90.4336 238.525 89.4863C237.588 88.5391 237.119 87.3086 237.119 85.7949C237.119 83.9297 237.851 82.416 239.316 81.2539C240.781 80.0918 242.671 79.5107 244.985 79.5107C247.309 79.5107 249.179 80.0869 250.595 81.2393C252.021 82.3818 252.758 83.8857 252.807 85.751H249.204C249.116 84.7646 248.691 83.9932 247.929 83.4365C247.168 82.8701 246.176 82.5869 244.956 82.5869C243.764 82.5869 242.797 82.8555 242.055 83.3926C241.323 83.9297 240.957 84.6377 240.957 85.5166C240.957 86.2197 241.24 86.791 241.806 87.2305C242.382 87.6699 243.32 88.0459 244.619 88.3584L247.05 88.915C249.189 89.4033 250.742 90.1162 251.709 91.0537C252.675 91.9912 253.159 93.2461 253.159 94.8184C253.159 96.8203 252.407 98.4121 250.903 99.5938C249.409 100.766 247.382 101.352 244.824 101.352C242.382 101.352 240.42 100.79 238.935 99.667C237.461 98.5342 236.684 96.9961 236.606 95.0527ZM269.536 101L267.734 95.5361H259.956L258.154 101H254.257L261.757 79.8623H266.02L273.52 101H269.536ZM263.794 83.5977L260.835 92.6211H266.84L263.896 83.5977H263.794ZM279.57 101H275.791V79.8623H289.267V83.0557H279.57V89.2959H288.432V92.3721H279.57V101ZM305.703 97.8066V101H292.021V79.8623H305.703V83.0557H295.8V88.7686H305.161V91.7715H295.8V97.8066H305.703ZM237.47 115.862H245.688C247.797 115.862 249.511 116.517 250.83 117.825C252.148 119.124 252.807 120.828 252.807 122.938C252.807 125.037 252.129 126.741 250.771 128.05C249.423 129.358 247.675 130.013 245.527 130.013H241.25V137H237.47V115.862ZM241.25 118.953V126.966H244.677C246.035 126.966 247.089 126.614 247.841 125.911C248.593 125.208 248.969 124.217 248.969 122.938C248.969 121.668 248.593 120.687 247.841 119.993C247.099 119.3 246.049 118.953 244.692 118.953H241.25ZM267.544 137L265.742 131.536H257.964L256.162 137H252.265L259.765 115.862H264.028L271.528 137H267.544ZM261.801 119.598L258.842 128.621H264.848L261.904 119.598H261.801ZM280.669 137H276.904V128.665L269.492 115.862H273.637L278.764 125.062H278.852L283.964 115.862H288.081L280.669 128.665V137ZM312.163 137H308.764V122H308.662L302.553 136.824H299.975L293.867 122H293.764V137H290.351V115.862H294.731L301.206 131.814H301.323L307.797 115.862H312.163V137ZM329.58 133.807V137H315.898V115.862H329.58V119.056H319.677V124.769H329.038V127.771H319.677V133.807H329.58ZM336.508 137H332.861V115.862H336.142L346.63 130.672H346.762V115.862H350.395V137H347.143L336.64 122.176H336.508V137ZM363.066 137H359.301V119.056H352.973V115.862H369.38V119.056H363.066V137Z"></path>
<path fill="black" d="M772.183 95.4715C784.449 95.4715 794.428 85.4927 794.428 73.2271C794.428 60.9615 784.449 50.9827 772.183 50.9827C759.918 50.9827 749.939 60.9615 749.939 73.2271C749.939 85.4927 759.918 95.4715 772.183 95.4715ZM772.183 58.6532C780.219 58.6532 786.757 65.191 786.757 73.2271C786.757 81.2632 780.219 87.801 772.183 87.801C764.147 87.801 757.609 81.2632 757.609 73.2271C757.609 65.191 764.147 58.6532 772.183 58.6532Z"></path>
<path fill="black" d="M817.184 95.4715C824.938 95.4715 831.246 89.163 831.246 81.4089C831.246 73.6548 824.938 67.3463 817.184 67.3463C809.429 67.3463 803.121 73.6548 803.121 81.4089C803.121 89.163 809.429 95.4715 817.184 95.4715ZM817.184 75.0168C820.708 75.0168 823.576 77.8843 823.576 81.4089C823.576 84.9335 820.708 87.801 817.184 87.801C813.659 87.801 810.791 84.9335 810.791 81.4089C810.791 77.8843 813.659 75.0168 817.184 75.0168Z"></path>
<path fill="black" d="M820.277 104.165H814.345C807.355 104.165 801.321 108.294 798.572 114.226C792.911 108.046 784.779 104.165 775.757 104.165H768.609C759.588 104.165 751.456 108.046 745.795 114.226C743.045 108.294 737.011 104.165 730.021 104.165H724.089C714.517 104.165 706.728 111.906 706.728 121.421V149.344C706.728 153.475 710.102 156.835 714.249 156.835H737.702C738.095 161.412 741.943 165.017 746.621 165.017H797.746C802.423 165.017 806.272 161.412 806.665 156.835H829.85C834.145 156.835 837.638 153.356 837.638 149.078V121.421C837.638 111.906 829.85 104.165 820.277 104.165ZM714.399 121.421C714.399 116.135 718.746 111.835 724.089 111.835H730.021C735.364 111.835 739.712 116.135 739.712 121.421V124.047C737.132 130.762 737.666 134.787 737.666 149.165H714.399V121.421ZM799.03 156.063C799.03 156.771 798.454 157.347 797.746 157.347H746.62C745.912 157.347 745.337 156.771 745.337 156.063V135.108C745.337 122.275 755.777 111.835 768.609 111.835H775.757C788.59 111.835 799.03 122.275 799.03 135.108V156.063ZM829.968 149.078C829.968 149.21 831.397 149.165 806.701 149.165C806.701 134.68 807.23 130.751 804.655 124.047V121.421C804.655 116.135 809.002 111.835 814.345 111.835H820.277C825.621 111.835 829.968 116.135 829.968 121.421V149.078Z"></path>
<path fill="black" d="M727.183 95.4715C734.937 95.4715 741.246 89.163 741.246 81.4089C741.246 73.6548 734.937 67.3463 727.183 67.3463C719.429 67.3463 713.121 73.6548 713.121 81.4089C713.121 89.163 719.429 95.4715 727.183 95.4715ZM727.183 75.0168C730.708 75.0168 733.575 77.8843 733.575 81.4089C733.575 84.9335 730.708 87.801 727.183 87.801C723.658 87.801 720.791 84.9335 720.791 81.4089C720.791 77.8843 723.658 75.0168 727.183 75.0168Z"></path>
<path fill="black" d="M888.327 79.5107C891.403 79.5107 893.84 80.4922 895.637 82.4551C897.443 84.418 898.347 87.0791 898.347 90.4385C898.347 93.7979 897.443 96.459 895.637 98.4219C893.84 100.375 891.403 101.352 888.327 101.352C885.241 101.352 882.795 100.375 880.988 98.4219C879.192 96.459 878.293 93.7979 878.293 90.4385C878.293 87.0791 879.192 84.418 880.988 82.4551C882.795 80.4922 885.241 79.5107 888.327 79.5107ZM892.824 84.8281C891.711 83.4316 890.212 82.7334 888.327 82.7334C886.443 82.7334 884.943 83.4268 883.83 84.8135C882.717 86.2002 882.16 88.0752 882.16 90.4385C882.16 92.792 882.717 94.6621 883.83 96.0488C884.943 97.4355 886.443 98.1289 888.327 98.1289C890.212 98.1289 891.711 97.4355 892.824 96.0488C893.938 94.6621 894.494 92.792 894.494 90.4385C894.494 88.085 893.938 86.2148 892.824 84.8281ZM910.857 101H906.521L899.167 79.8623H903.327L908.689 96.9424H908.776L914.138 79.8623H918.21L910.857 101ZM934.148 97.8066V101H920.466V79.8623H934.148V83.0557H924.245V88.7686H933.606V91.7715H924.245V97.8066H934.148ZM941.208 82.9238V90.1455H945.471C946.672 90.1455 947.605 89.8281 948.269 89.1934C948.933 88.5586 949.265 87.6699 949.265 86.5273C949.265 85.4141 948.918 84.5352 948.225 83.8906C947.531 83.2461 946.589 82.9238 945.398 82.9238H941.208ZM941.208 93.0459V101H937.429V79.8623H945.822C948.098 79.8623 949.885 80.4531 951.184 81.6348C952.483 82.8066 953.132 84.4082 953.132 86.4395C953.132 87.8555 952.78 89.1055 952.077 90.1895C951.374 91.2637 950.398 92.0254 949.148 92.4746L953.762 101H949.455L945.295 93.0459H941.208ZM961.687 86.1318C961.687 84.1787 962.39 82.5771 963.796 81.3271C965.202 80.0674 966.999 79.4375 969.187 79.4375C971.286 79.4375 973.015 80.0088 974.372 81.1514C975.739 82.2939 976.423 83.7246 976.423 85.4434C976.423 86.625 976.091 87.7432 975.427 88.7979C974.773 89.8428 973.684 91.1318 972.16 92.665L966.931 97.8359V97.9092H976.745V101H961.892V98.4512L969.67 90.7168C970.871 89.4863 971.682 88.5244 972.102 87.8311C972.522 87.1377 972.732 86.3955 972.732 85.6045C972.732 84.7256 972.38 83.9834 971.677 83.3779C970.984 82.7725 970.114 82.4697 969.069 82.4697C967.966 82.4697 967.048 82.8164 966.316 83.5098C965.593 84.2031 965.232 85.0723 965.232 86.1172V86.1758H961.687V86.1318ZM987.497 101.425C984.919 101.425 982.893 100.443 981.418 98.4805C979.953 96.5078 979.221 93.8174 979.221 90.4092C979.221 87.0205 979.958 84.3447 981.433 82.3818C982.907 80.4189 984.929 79.4375 987.497 79.4375C990.066 79.4375 992.082 80.4189 993.547 82.3818C995.012 84.335 995.744 87.0059 995.744 90.3945C995.744 93.793 995.012 96.4834 993.547 98.4658C992.082 100.438 990.066 101.425 987.497 101.425ZM987.497 98.334C988.894 98.334 989.978 97.6357 990.749 96.2393C991.53 94.8428 991.921 92.8994 991.921 90.4092C991.921 87.9385 991.53 86.0098 990.749 84.623C989.968 83.2266 988.884 82.5283 987.497 82.5283C986.11 82.5283 985.017 83.2266 984.216 84.623C983.425 86.0195 983.029 87.9434 983.029 90.3945C983.029 92.8848 983.42 94.833 984.201 96.2393C984.992 97.6357 986.091 98.334 987.497 98.334ZM1006.54 101.425C1003.96 101.425 1001.94 100.443 1000.46 98.4805C998.996 96.5078 998.264 93.8174 998.264 90.4092C998.264 87.0205 999.001 84.3447 1000.48 82.3818C1001.95 80.4189 1003.97 79.4375 1006.54 79.4375C1009.11 79.4375 1011.13 80.4189 1012.59 82.3818C1014.05 84.335 1014.79 87.0059 1014.79 90.3945C1014.79 93.793 1014.05 96.4834 1012.59 98.4658C1011.13 100.438 1009.11 101.425 1006.54 101.425ZM1006.54 98.334C1007.94 98.334 1009.02 97.6357 1009.79 96.2393C1010.57 94.8428 1010.96 92.8994 1010.96 90.4092C1010.96 87.9385 1010.57 86.0098 1009.79 84.623C1009.01 83.2266 1007.93 82.5283 1006.54 82.5283C1005.15 82.5283 1004.06 83.2266 1003.26 84.623C1002.47 86.0195 1002.07 87.9434 1002.07 90.3945C1002.07 92.8848 1002.46 94.833 1003.24 96.2393C1004.04 97.6357 1005.13 98.334 1006.54 98.334ZM1019.42 101.161C1018.82 101.161 1018.32 100.961 1017.91 100.561C1017.51 100.15 1017.31 99.6475 1017.31 99.0518C1017.31 98.4658 1017.51 97.9678 1017.91 97.5576C1018.32 97.1475 1018.82 96.9424 1019.42 96.9424C1020 96.9424 1020.5 97.1475 1020.9 97.5576C1021.31 97.9678 1021.51 98.4658 1021.51 99.0518C1021.51 99.6475 1021.31 100.15 1020.9 100.561C1020.5 100.961 1020 101.161 1019.42 101.161ZM1032.7 101.425C1030.12 101.425 1028.1 100.443 1026.62 98.4805C1025.16 96.5078 1024.43 93.8174 1024.43 90.4092C1024.43 87.0205 1025.16 84.3447 1026.64 82.3818C1028.11 80.4189 1030.13 79.4375 1032.7 79.4375C1035.27 79.4375 1037.29 80.4189 1038.75 82.3818C1040.22 84.335 1040.95 87.0059 1040.95 90.3945C1040.95 93.793 1040.22 96.4834 1038.75 98.4658C1037.29 100.438 1035.27 101.425 1032.7 101.425ZM1032.7 98.334C1034.1 98.334 1035.18 97.6357 1035.95 96.2393C1036.74 94.8428 1037.13 92.8994 1037.13 90.4092C1037.13 87.9385 1036.74 86.0098 1035.95 84.623C1035.17 83.2266 1034.09 82.5283 1032.7 82.5283C1031.32 82.5283 1030.22 83.2266 1029.42 84.623C1028.63 86.0195 1028.23 87.9434 1028.23 90.3945C1028.23 92.8848 1028.63 94.833 1029.41 96.2393C1030.2 97.6357 1031.3 98.334 1032.7 98.334ZM1051.75 101.425C1049.17 101.425 1047.14 100.443 1045.67 98.4805C1044.2 96.5078 1043.47 93.8174 1043.47 90.4092C1043.47 87.0205 1044.21 84.3447 1045.68 82.3818C1047.16 80.4189 1049.18 79.4375 1051.75 79.4375C1054.31 79.4375 1056.33 80.4189 1057.8 82.3818C1059.26 84.335 1059.99 87.0059 1059.99 90.3945C1059.99 93.793 1059.26 96.4834 1057.8 98.4658C1056.33 100.438 1054.31 101.425 1051.75 101.425ZM1051.75 98.334C1053.14 98.334 1054.23 97.6357 1055 96.2393C1055.78 94.8428 1056.17 92.8994 1056.17 90.4092C1056.17 87.9385 1055.78 86.0098 1055 84.623C1054.22 83.2266 1053.13 82.5283 1051.75 82.5283C1050.36 82.5283 1049.26 83.2266 1048.46 84.623C1047.67 86.0195 1047.28 87.9434 1047.28 90.3945C1047.28 92.8848 1047.67 94.833 1048.45 96.2393C1049.24 97.6357 1050.34 98.334 1051.75 98.334ZM1070.79 101.425C1068.21 101.425 1066.18 100.443 1064.71 98.4805C1063.24 96.5078 1062.51 93.8174 1062.51 90.4092C1062.51 87.0205 1063.25 84.3447 1064.72 82.3818C1066.2 80.4189 1068.22 79.4375 1070.79 79.4375C1073.36 79.4375 1075.37 80.4189 1076.84 82.3818C1078.3 84.335 1079.04 87.0059 1079.04 90.3945C1079.04 93.793 1078.3 96.4834 1076.84 98.4658C1075.37 100.438 1073.36 101.425 1070.79 101.425ZM1070.79 98.334C1072.18 98.334 1073.27 97.6357 1074.04 96.2393C1074.82 94.8428 1075.21 92.8994 1075.21 90.4092C1075.21 87.9385 1074.82 86.0098 1074.04 84.623C1073.26 83.2266 1072.17 82.5283 1070.79 82.5283C1069.4 82.5283 1068.31 83.2266 1067.51 84.623C1066.72 86.0195 1066.32 87.9434 1066.32 90.3945C1066.32 92.8848 1066.71 94.833 1067.49 96.2393C1068.28 97.6357 1069.38 98.334 1070.79 98.334ZM888.122 137.352C885.095 137.352 882.697 136.375 880.93 134.422C879.172 132.469 878.293 129.803 878.293 126.424C878.293 123.064 879.177 120.408 880.944 118.455C882.722 116.492 885.114 115.511 888.122 115.511C890.583 115.511 892.658 116.214 894.348 117.62C896.037 119.017 896.999 120.848 897.234 123.113H893.513C893.269 121.785 892.649 120.721 891.652 119.92C890.666 119.119 889.489 118.719 888.122 118.719C886.306 118.719 884.856 119.417 883.772 120.813C882.697 122.2 882.16 124.07 882.16 126.424C882.16 128.797 882.697 130.677 883.772 132.063C884.846 133.45 886.301 134.144 888.137 134.144C889.533 134.144 890.705 133.787 891.652 133.074C892.609 132.352 893.234 131.355 893.527 130.086H897.234C896.901 132.352 895.925 134.129 894.304 135.418C892.683 136.707 890.622 137.352 888.122 137.352ZM903.884 115.862V129.207C903.884 130.672 904.314 131.849 905.173 132.737C906.042 133.616 907.248 134.056 908.791 134.056C910.334 134.056 911.54 133.616 912.409 132.737C913.278 131.849 913.713 130.672 913.713 129.207V115.862H917.478V129.544C917.478 131.878 916.692 133.763 915.119 135.198C913.557 136.634 911.447 137.352 908.791 137.352C906.145 137.352 904.035 136.634 902.463 135.198C900.891 133.763 900.105 131.878 900.105 129.544V115.862H903.884ZM920.363 131.053H924.026C924.143 132.02 924.641 132.801 925.52 133.396C926.399 133.982 927.487 134.275 928.786 134.275C930.056 134.275 931.091 133.992 931.892 133.426C932.702 132.859 933.108 132.137 933.108 131.258C933.108 130.496 932.815 129.881 932.229 129.412C931.643 128.934 930.686 128.538 929.358 128.226L926.618 127.581C924.675 127.132 923.23 126.434 922.282 125.486C921.345 124.539 920.876 123.309 920.876 121.795C920.876 119.93 921.609 118.416 923.073 117.254C924.538 116.092 926.428 115.511 928.742 115.511C931.067 115.511 932.937 116.087 934.353 117.239C935.778 118.382 936.516 119.886 936.565 121.751H932.961C932.873 120.765 932.448 119.993 931.687 119.437C930.925 118.87 929.934 118.587 928.713 118.587C927.522 118.587 926.555 118.855 925.813 119.393C925.08 119.93 924.714 120.638 924.714 121.517C924.714 122.22 924.997 122.791 925.564 123.23C926.14 123.67 927.077 124.046 928.376 124.358L930.808 124.915C932.946 125.403 934.499 126.116 935.466 127.054C936.433 127.991 936.916 129.246 936.916 130.818C936.916 132.82 936.164 134.412 934.66 135.594C933.166 136.766 931.14 137.352 928.581 137.352C926.14 137.352 924.177 136.79 922.693 135.667C921.218 134.534 920.442 132.996 920.363 131.053ZM948.708 137H944.943V119.056H938.615V115.862H955.022V119.056H948.708V137ZM965.7 115.511C968.776 115.511 971.213 116.492 973.01 118.455C974.817 120.418 975.72 123.079 975.72 126.438C975.72 129.798 974.817 132.459 973.01 134.422C971.213 136.375 968.776 137.352 965.7 137.352C962.614 137.352 960.168 136.375 958.361 134.422C956.565 132.459 955.666 129.798 955.666 126.438C955.666 123.079 956.565 120.418 958.361 118.455C960.168 116.492 962.614 115.511 965.7 115.511ZM970.197 120.828C969.084 119.432 967.585 118.733 965.7 118.733C963.816 118.733 962.317 119.427 961.203 120.813C960.09 122.2 959.533 124.075 959.533 126.438C959.533 128.792 960.09 130.662 961.203 132.049C962.317 133.436 963.816 134.129 965.7 134.129C967.585 134.129 969.084 133.436 970.197 132.049C971.311 130.662 971.867 128.792 971.867 126.438C971.867 124.085 971.311 122.215 970.197 120.828ZM1000.55 137H997.151V122H997.048L990.94 136.824H988.361L982.253 122H982.151V137H978.737V115.862H983.117L989.592 131.814H989.709L996.184 115.862H1000.55V137ZM1017.97 133.807V137H1004.28V115.862H1017.97V119.056H1008.06V124.769H1017.42V127.771H1008.06V133.807H1017.97ZM1025.03 118.924V126.146H1029.29C1030.49 126.146 1031.42 125.828 1032.09 125.193C1032.75 124.559 1033.08 123.67 1033.08 122.527C1033.08 121.414 1032.74 120.535 1032.04 119.891C1031.35 119.246 1030.41 118.924 1029.22 118.924H1025.03ZM1025.03 129.046V137H1021.25V115.862H1029.64C1031.92 115.862 1033.7 116.453 1035 117.635C1036.3 118.807 1036.95 120.408 1036.95 122.439C1036.95 123.855 1036.6 125.105 1035.9 126.189C1035.19 127.264 1034.22 128.025 1032.97 128.475L1037.58 137H1033.27L1029.11 129.046H1025.03ZM1039.13 131.053H1042.8C1042.91 132.02 1043.41 132.801 1044.29 133.396C1045.17 133.982 1046.26 134.275 1047.56 134.275C1048.83 134.275 1049.86 133.992 1050.66 133.426C1051.47 132.859 1051.88 132.137 1051.88 131.258C1051.88 130.496 1051.58 129.881 1051 129.412C1050.41 128.934 1049.46 128.538 1048.13 128.226L1045.39 127.581C1043.44 127.132 1042 126.434 1041.05 125.486C1040.11 124.539 1039.65 123.309 1039.65 121.795C1039.65 119.93 1040.38 118.416 1041.84 117.254C1043.31 116.092 1045.2 115.511 1047.51 115.511C1049.84 115.511 1051.71 116.087 1053.12 117.239C1054.55 118.382 1055.29 119.886 1055.33 121.751H1051.73C1051.64 120.765 1051.22 119.993 1050.46 119.437C1049.69 118.87 1048.7 118.587 1047.48 118.587C1046.29 118.587 1045.32 118.855 1044.58 119.393C1043.85 119.93 1043.48 120.638 1043.48 121.517C1043.48 122.22 1043.77 122.791 1044.33 123.23C1044.91 123.67 1045.85 124.046 1047.15 124.358L1049.58 124.915C1051.72 125.403 1053.27 126.116 1054.24 127.054C1055.2 127.991 1055.69 129.246 1055.69 130.818C1055.69 132.82 1054.93 134.412 1053.43 135.594C1051.94 136.766 1049.91 137.352 1047.35 137.352C1044.91 137.352 1042.95 136.79 1041.46 135.667C1039.99 134.534 1039.21 132.996 1039.13 131.053Z"></path>
<path fill="black" d="M1476.13 108.033C1476.13 142.287 1448.26 170.155 1414.01 170.155C1379.76 170.155 1351.89 142.287 1351.89 108.033C1351.89 105.887 1353.63 104.15 1355.77 104.15C1357.92 104.15 1359.65 105.887 1359.65 108.033C1359.65 138.006 1384.04 162.39 1414.01 162.39C1443.98 162.39 1468.37 138.006 1468.37 108.033C1468.37 78.0602 1443.98 53.6758 1414.01 53.6758C1399.56 53.6758 1386.15 59.2914 1376.06 69.2064H1390.71C1392.86 69.2064 1394.6 70.9433 1394.6 73.0891C1394.6 75.2349 1392.86 76.9717 1390.71 76.9717H1367.42C1365.27 76.9717 1363.54 75.2349 1363.54 73.0891V49.7932C1363.54 47.6474 1365.27 45.9105 1367.42 45.9105C1369.56 45.9105 1371.3 47.6474 1371.3 49.7932V63.0382C1382.76 52.1046 1397.81 45.9105 1414.01 45.9105C1448.26 45.9105 1476.13 73.7789 1476.13 108.033ZM1448.95 92.5024V127.446C1448.95 129.065 1447.95 130.514 1446.44 131.083L1415.38 142.731C1414.94 142.894 1414.47 142.977 1414.01 142.977C1413.55 142.977 1413.09 142.894 1412.65 142.731L1381.58 131.083C1380.07 130.514 1379.07 129.065 1379.07 127.446V92.5024C1379.07 90.8833 1380.07 89.4351 1381.58 88.8656L1412.65 77.2176C1413.53 76.8915 1414.5 76.8915 1415.37 77.2176L1446.44 88.8656C1447.95 89.4351 1448.95 90.8833 1448.95 92.5024ZM1394.01 92.5024L1414.01 100.002L1434.02 92.5024L1414.01 85.0024L1394.01 92.5024ZM1386.83 124.754L1410.13 133.49V106.842L1386.83 98.1063V124.754ZM1441.19 124.754V98.1063L1417.89 106.842V133.49L1441.19 124.754Z"></path>
<path fill="black" d="M1534.48 97.8066V101H1520.79V79.8623H1534.48V83.0557H1524.57V88.7686H1533.93V91.7715H1524.57V97.8066H1534.48ZM1551.57 101L1549.77 95.5361H1541.99L1540.19 101H1536.29L1543.79 79.8623H1548.06L1555.56 101H1551.57ZM1545.83 83.5977L1542.87 92.6211H1548.88L1545.93 83.5977H1545.83ZM1556.67 95.0527H1560.33C1560.45 96.0195 1560.95 96.8008 1561.82 97.3965C1562.7 97.9824 1563.79 98.2754 1565.09 98.2754C1566.36 98.2754 1567.4 97.9922 1568.2 97.4258C1569.01 96.8594 1569.41 96.1367 1569.41 95.2578C1569.41 94.4961 1569.12 93.8809 1568.53 93.4121C1567.95 92.9336 1566.99 92.5381 1565.66 92.2256L1562.92 91.5811C1560.98 91.1318 1559.53 90.4336 1558.59 89.4863C1557.65 88.5391 1557.18 87.3086 1557.18 85.7949C1557.18 83.9297 1557.91 82.416 1559.38 81.2539C1560.84 80.0918 1562.73 79.5107 1565.05 79.5107C1567.37 79.5107 1569.24 80.0869 1570.66 81.2393C1572.08 82.3818 1572.82 83.8857 1572.87 85.751H1569.27C1569.18 84.7646 1568.75 83.9932 1567.99 83.4365C1567.23 82.8701 1566.24 82.5869 1565.02 82.5869C1563.83 82.5869 1562.86 82.8555 1562.12 83.3926C1561.39 83.9297 1561.02 84.6377 1561.02 85.5166C1561.02 86.2197 1561.3 86.791 1561.87 87.2305C1562.44 87.6699 1563.38 88.0459 1564.68 88.3584L1567.11 88.915C1569.25 89.4033 1570.8 90.1162 1571.77 91.0537C1572.74 91.9912 1573.22 93.2461 1573.22 94.8184C1573.22 96.8203 1572.47 98.4121 1570.97 99.5938C1569.47 100.766 1567.44 101.352 1564.89 101.352C1562.44 101.352 1560.48 100.79 1559 99.667C1557.52 98.5342 1556.75 96.9961 1556.67 95.0527ZM1585.41 101H1581.64V92.665L1574.23 79.8623H1578.38L1583.5 89.0615H1583.59L1588.7 79.8623H1592.82L1585.41 92.665V101ZM1524.57 118.924V126.146H1528.84C1530.04 126.146 1530.97 125.828 1531.63 125.193C1532.3 124.559 1532.63 123.67 1532.63 122.527C1532.63 121.414 1532.28 120.535 1531.59 119.891C1530.9 119.246 1529.95 118.924 1528.76 118.924H1524.57ZM1524.57 129.046V137H1520.79V115.862H1529.19C1531.46 115.862 1533.25 116.453 1534.55 117.635C1535.85 118.807 1536.5 120.408 1536.5 122.439C1536.5 123.855 1536.15 125.105 1535.44 126.189C1534.74 127.264 1533.76 128.025 1532.51 128.475L1537.13 137H1532.82L1528.66 129.046H1524.57ZM1553.23 133.807V137H1539.54V115.862H1553.23V119.056H1543.32V124.769H1552.68V127.771H1543.32V133.807H1553.23ZM1565.44 137H1561.68V119.056H1555.35V115.862H1571.76V119.056H1565.44V137ZM1578.13 115.862V129.207C1578.13 130.672 1578.56 131.849 1579.42 132.737C1580.29 133.616 1581.49 134.056 1583.04 134.056C1584.58 134.056 1585.78 133.616 1586.65 132.737C1587.52 131.849 1587.96 130.672 1587.96 129.207V115.862H1591.72V129.544C1591.72 131.878 1590.94 133.763 1589.36 135.198C1587.8 136.634 1585.69 137.352 1583.04 137.352C1580.39 137.352 1578.28 136.634 1576.71 135.198C1575.14 133.763 1574.35 131.878 1574.35 129.544V115.862H1578.13ZM1599.25 118.924V126.146H1603.51C1604.72 126.146 1605.65 125.828 1606.31 125.193C1606.98 124.559 1607.31 123.67 1607.31 122.527C1607.31 121.414 1606.96 120.535 1606.27 119.891C1605.57 119.246 1604.63 118.924 1603.44 118.924H1599.25ZM1599.25 129.046V137H1595.47V115.862H1603.87C1606.14 115.862 1607.93 116.453 1609.23 117.635C1610.53 118.807 1611.18 120.408 1611.18 122.439C1611.18 123.855 1610.82 125.105 1610.12 126.189C1609.42 127.264 1608.44 128.025 1607.19 128.475L1611.81 137H1607.5L1603.34 129.046H1599.25ZM1617.87 137H1614.22V115.862H1617.5L1627.99 130.672H1628.12V115.862H1631.76V137H1628.5L1618 122.176H1617.87V137Z"></path>
<defs>
<clipPath id="clip0_3128_1250">
<rect transform="translate(59.676 37.033)" fill="white" height="141.934" width="141.934"></rect>
</clipPath>
</defs>
</svg>
